<?xml version="1.0" encoding="UTF-8" standalone="no"?>
<!-- Created with Inkscape (http://www.inkscape.org/) -->

<svg
   xmlns:dc="http://purl.org/dc/elements/1.1/"
   xmlns:cc="http://creativecommons.org/ns#"
   xmlns:rdf="http://www.w3.org/1999/02/22-rdf-syntax-ns#"
   xmlns:svg="http://www.w3.org/2000/svg"
   xmlns="http://www.w3.org/2000/svg"
   xmlns:sodipodi="http://sodipodi.sourceforge.net/DTD/sodipodi-0.dtd"
   xmlns:inkscape="http://www.inkscape.org/namespaces/inkscape"
   width="210mm"
   height="297mm"
   viewBox="0 0 210 297"
   version="1.1"
   id="svg8"
   sodipodi:docname="logo.svg"
   inkscape:version="0.92.5 (2060ec1f9f, 2020-04-08)">
  <defs
     id="defs2" />
  <sodipodi:namedview
     id="base"
     pagecolor="#ffffff"
     bordercolor="#666666"
     borderopacity="1.0"
     inkscape:pageopacity="0.0"
     inkscape:pageshadow="2"
     inkscape:zoom="0.175"
     inkscape:cx="-490.4361"
     inkscape:cy="800.89611"
     inkscape:document-units="mm"
     inkscape:current-layer="layer1"
     showgrid="false"
     inkscape:window-width="1450"
     inkscape:window-height="840"
     inkscape:window-x="255"
     inkscape:window-y="82"
     inkscape:window-maximized="0"
     inkscape:pagecheckerboard="true" />
  <metadata
     id="metadata5">
    <rdf:RDF>
      <cc:Work
         rdf:about="">
        <dc:format>image/svg+xml</dc:format>
        <dc:type
           rdf:resource="http://purl.org/dc/dcmitype/StillImage" />
        <dc:title></dc:title>
      </cc:Work>
    </rdf:RDF>
  </metadata>
  <g
     inkscape:label="Layer 1"
     inkscape:groupmode="layer"
     id="layer1">
    <circle
       style="opacity:1;fill:none;fill-opacity:1;stroke:#ffffff;stroke-width:7;stroke-linecap:round;stroke-linejoin:round;stroke-miterlimit:4;stroke-dasharray:none;stroke-opacity:1;paint-order:markers fill stroke"
       id="path4518"
       cx="171.97916"
       cy="112.92559"
       r="40"
       inkscape:export-xdpi="17.553905"
       inkscape:export-ydpi="17.553905" />
    <circle
       style="opacity:1;fill:none;fill-opacity:1;stroke:#ffffff;stroke-width:7;stroke-linecap:round;stroke-linejoin:round;stroke-miterlimit:4;stroke-dasharray:none;stroke-opacity:1;paint-order:markers fill stroke"
       id="path4518-1"
       cx="58.523808"
       cy="216.55356"
       r="32.55814"
       inkscape:export-xdpi="17.553905"
       inkscape:export-ydpi="17.553905" />
    <circle
       style="opacity:1;fill:none;fill-opacity:1;stroke:#ffffff;stroke-width:7;stroke-linecap:round;stroke-linejoin:round;stroke-miterlimit:4;stroke-dasharray:none;stroke-opacity:1;paint-order:markers fill stroke"
       id="path4518-8"
       cx="30.089293"
       cy="75.654778"
       r="27.906977"
       inkscape:export-xdpi="17.553905"
       inkscape:export-ydpi="17.553905" />
    <path
       style="fill:none;stroke:#ffffff;stroke-width:5;stroke-linecap:butt;stroke-linejoin:miter;stroke-miterlimit:4;stroke-dasharray:none;stroke-opacity:1"
       d="M 49.136901,183.60714 35.529761,103.47619"
       id="path4541"
       inkscape:connector-curvature="0"
       inkscape:export-xdpi="17.553905"
       inkscape:export-ydpi="17.553905" />
    <path
       style="fill:none;stroke:#ffffff;stroke-width:5;stroke-linecap:butt;stroke-linejoin:miter;stroke-miterlimit:4;stroke-dasharray:none;stroke-opacity:1"
       d="M 84.666661,194.94643 144.3869,141.27381"
       id="path4543"
       inkscape:connector-curvature="0"
       inkscape:export-xdpi="17.553905"
       inkscape:export-ydpi="17.553905" />
    <path
       style="fill:none;stroke:#ffffff;stroke-width:5;stroke-linecap:butt;stroke-linejoin:miter;stroke-miterlimit:4;stroke-dasharray:none;stroke-opacity:1"
       d="M 133.80357,96.672616 57.452381,83.821426"
       id="path4545"
       inkscape:connector-curvature="0"
       inkscape:export-xdpi="17.553905"
       inkscape:export-ydpi="17.553905" />
    <path
       id="path97"
       style="fill:#ffffff;fill-opacity:1;stroke:none;stroke-width:1.76687992;stroke-linecap:butt;stroke-linejoin:miter;stroke-miterlimit:4;stroke-dasharray:none;stroke-opacity:1"
       d="m 196.20203,110.43206 c -5.39524,0.0747 -14.46836,4.86439 -14.46836,4.86439 -5.21879,1.84944 -20.74145,13.15064 -22.21187,21.77336 -1.45164,8.51267 2.96605,12.01621 13.01682,12.76359 10.05072,0.74739 12.31781,-7.11786 15.03805,-16.73735 2.72021,-9.61949 15.0024,-17.17115 12.01238,-21.40906 -0.65405,-0.92704 -1.87635,-1.27585 -3.38702,-1.25493 z m -8.42466,4.1254 a 1.6005019,1.6005019 0 0 1 1.60039,1.60053 1.6005019,1.6005019 0 0 1 -1.60039,1.6004 1.6005019,1.6005019 0 0 1 -1.60053,-1.6004 1.6005019,1.6005019 0 0 1 1.60053,-1.60053 z"
       inkscape:connector-curvature="0"
       inkscape:export-xdpi="17.553905"
       inkscape:export-ydpi="17.553905" />
    <path
       style="fill:none;stroke:#ffffff;stroke-width:2.59588099;stroke-linecap:round;stroke-linejoin:miter;stroke-miterlimit:4;stroke-dasharray:none;stroke-opacity:1"
       d="m 179.96401,116.0614 c 0,0 -1.18889,-4.4507 -6.14304,-4.02283 -5.37549,0.46425 -9.10186,7.61763 -0.45037,11.68016"
       id="path924"
       inkscape:connector-curvature="0"
       inkscape:export-xdpi="17.553905"
       inkscape:export-ydpi="17.553905" />
    <path
       style="fill:none;stroke:#ffffff;stroke-width:2.59588099;stroke-linecap:round;stroke-linejoin:miter;stroke-miterlimit:4;stroke-dasharray:none;stroke-opacity:1"
       d="m 186.10055,113.76911 c 0,0 -0.45385,-2.18095 -2.83904,-3.28249 -2.38519,-1.10152 -5.62615,-0.43025 -6.49631,1.35076"
       id="path926"
       inkscape:connector-curvature="0"
       inkscape:export-xdpi="17.553905"
       inkscape:export-ydpi="17.553905" />
    <path
       style="fill:none;stroke:#ffffff;stroke-width:2.59592676;stroke-linecap:round;stroke-linejoin:miter;stroke-miterlimit:4;stroke-dasharray:none;stroke-opacity:1"
       d="m 159.48174,142.78023 c 0,0 -4.70421,2.53716 -7.07629,-0.74986 -2.37209,-3.28702 -0.16704,-6.77873 2.34264,-8.76091 2.74515,-2.16811 9.60173,-5.93354 7.29569,-12.04024 -2.13022,-5.6412 -8.22165,-4.22261 -10.09806,-1.44379 -1.65218,2.44676 -0.95467,6.10118 2.20709,6.57231 3.16176,0.47115 4.09114,-2.41191 4.09114,-2.41191"
       id="path928"
       inkscape:connector-curvature="0"
       inkscape:export-xdpi="17.553905"
       inkscape:export-ydpi="17.553905" />
    <circle
       inkscape:export-ydpi="17.553905"
       inkscape:export-xdpi="17.553905"
       r="40"
       cy="112.92559"
       cx="171.97916"
       id="circle5201"
       style="opacity:1;fill:none;fill-opacity:1;stroke:#ffffff;stroke-width:7;stroke-linecap:round;stroke-linejoin:round;stroke-miterlimit:4;stroke-dasharray:none;stroke-opacity:1;paint-order:markers fill stroke" />
    <circle
       inkscape:export-ydpi="17.553905"
       inkscape:export-xdpi="17.553905"
       r="32.55814"
       cy="216.55356"
       cx="58.523808"
       id="circle5203"
       style="opacity:1;fill:none;fill-opacity:1;stroke:#ffffff;stroke-width:7;stroke-linecap:round;stroke-linejoin:round;stroke-miterlimit:4;stroke-dasharray:none;stroke-opacity:1;paint-order:markers fill stroke" />
    <circle
       inkscape:export-ydpi="17.553905"
       inkscape:export-xdpi="17.553905"
       r="27.906977"
       cy="75.654778"
       cx="30.089293"
       id="circle5205"
       style="opacity:1;fill:none;fill-opacity:1;stroke:#ffffff;stroke-width:7;stroke-linecap:round;stroke-linejoin:round;stroke-miterlimit:4;stroke-dasharray:none;stroke-opacity:1;paint-order:markers fill stroke" />
    <path
       inkscape:export-ydpi="17.553905"
       inkscape:export-xdpi="17.553905"
       inkscape:connector-curvature="0"
       id="path5207"
       d="M 49.136901,183.60714 35.529761,103.47619"
       style="fill:none;stroke:#ffffff;stroke-width:5;stroke-linecap:butt;stroke-linejoin:miter;stroke-miterlimit:4;stroke-dasharray:none;stroke-opacity:1" />
    <path
       inkscape:export-ydpi="17.553905"
       inkscape:export-xdpi="17.553905"
       inkscape:connector-curvature="0"
       id="path5209"
       d="M 84.666661,194.94643 144.3869,141.27381"
       style="fill:none;stroke:#ffffff;stroke-width:5;stroke-linecap:butt;stroke-linejoin:miter;stroke-miterlimit:4;stroke-dasharray:none;stroke-opacity:1" />
    <path
       inkscape:export-ydpi="17.553905"
       inkscape:export-xdpi="17.553905"
       inkscape:connector-curvature="0"
       id="path5211"
       d="M 133.80357,96.672616 57.452381,83.821426"
       style="fill:none;stroke:#ffffff;stroke-width:5;stroke-linecap:butt;stroke-linejoin:miter;stroke-miterlimit:4;stroke-dasharray:none;stroke-opacity:1" />
    <path
       inkscape:export-ydpi="17.553905"
       inkscape:export-xdpi="17.553905"
       inkscape:connector-curvature="0"
       d="m 196.20203,110.43206 c -5.39524,0.0747 -14.46836,4.86439 -14.46836,4.86439 -5.21879,1.84944 -20.74145,13.15064 -22.21187,21.77336 -1.45164,8.51267 2.96605,12.01621 13.01682,12.76359 10.05072,0.74739 12.31781,-7.11786 15.03805,-16.73735 2.72021,-9.61949 15.0024,-17.17115 12.01238,-21.40906 -0.65405,-0.92704 -1.87635,-1.27585 -3.38702,-1.25493 z m -8.42466,4.1254 a 1.6005019,1.6005019 0 0 1 1.60039,1.60053 1.6005019,1.6005019 0 0 1 -1.60039,1.6004 1.6005019,1.6005019 0 0 1 -1.60053,-1.6004 1.6005019,1.6005019 0 0 1 1.60053,-1.60053 z"
       style="fill:#ffffff;fill-opacity:1;stroke:none;stroke-width:1.76687992;stroke-linecap:butt;stroke-linejoin:miter;stroke-miterlimit:4;stroke-dasharray:none;stroke-opacity:1"
       id="path5213" />
    <path
       inkscape:export-ydpi="17.553905"
       inkscape:export-xdpi="17.553905"
       inkscape:connector-curvature="0"
       id="path5215"
       d="m 179.96401,116.0614 c 0,0 -1.18889,-4.4507 -6.14304,-4.02283 -5.37549,0.46425 -9.10186,7.61763 -0.45037,11.68016"
       style="fill:none;stroke:#ffffff;stroke-width:2.59588099;stroke-linecap:round;stroke-linejoin:miter;stroke-miterlimit:4;stroke-dasharray:none;stroke-opacity:1" />
    <path
       inkscape:export-ydpi="17.553905"
       inkscape:export-xdpi="17.553905"
       inkscape:connector-curvature="0"
       id="path5217"
       d="m 186.10055,113.76911 c 0,0 -0.45385,-2.18095 -2.83904,-3.28249 -2.38519,-1.10152 -5.62615,-0.43025 -6.49631,1.35076"
       style="fill:none;stroke:#ffffff;stroke-width:2.59588099;stroke-linecap:round;stroke-linejoin:miter;stroke-miterlimit:4;stroke-dasharray:none;stroke-opacity:1" />
    <path
       inkscape:export-ydpi="17.553905"
       inkscape:export-xdpi="17.553905"
       inkscape:connector-curvature="0"
       id="path5219"
       d="m 159.48174,142.78023 c 0,0 -4.70421,2.53716 -7.07629,-0.74986 -2.37209,-3.28702 -0.16704,-6.77873 2.34264,-8.76091 2.74515,-2.16811 9.60173,-5.93354 7.29569,-12.04024 -2.13022,-5.6412 -8.22165,-4.22261 -10.09806,-1.44379 -1.65218,2.44676 -0.95467,6.10118 2.20709,6.57231 3.16176,0.47115 4.09114,-2.41191 4.09114,-2.41191"
       style="fill:none;stroke:#ffffff;stroke-width:2.59592676;stroke-linecap:round;stroke-linejoin:miter;stroke-miterlimit:4;stroke-dasharray:none;stroke-opacity:1" />
  </g>
</svg>
